<?xml version="1.0" standalone="no"?>
<!DOCTYPE svg PUBLIC "-//W3C//DTD SVG 20010904//EN"
 "http://www.w3.org/TR/2001/REC-SVG-20010904/DTD/svg10.dtd">
<svg version="1.0" xmlns="http://www.w3.org/2000/svg"
 width="301.000000pt" height="277.000000pt" viewBox="0 0 301.000000 277.000000"
 preserveAspectRatio="xMidYMid meet">

<g transform="translate(0.000000,277.000000) scale(0.100000,-0.100000)"
fill="#000000" stroke="none">
<path d="M1705 2625 c-114 -44 -171 -188 -116 -293 11 -20 180 -197 375 -392
196 -195 356 -358 356 -362 0 -5 -488 -8 -1085 -8 -1177 0 -1124 2 -1183 -53
-41 -38 -52 -71 -52 -157 0 -86 11 -119 52 -157 59 -55 6 -53 1183 -53 597 0
1085 -3 1085 -8 0 -4 -160 -167 -356 -362 -195 -195 -364 -372 -375 -392 -23
-44 -25 -133 -6 -181 18 -42 85 -101 132 -117 44 -14 121 -8 162 14 15 8 251
239 524 513 541 543 538 540 562 677 14 82 1 167 -38 251 -24 53 -89 122 -519
553 -281 282 -507 502 -529 513 -52 27 -122 32 -172 14z"/>
</g>
</svg>
